{
  "accessors": [
    {
      "bufferView": 2,
      "componentType": 5126,
      "count": 25492,
      "max": [
        4.9077401161193848,
        2.8160700798034668,
        5.0989999771118164
      ],
      "min": [
        -4.9077401161193848,
        -3.3828599452972412,
        -4.6129298210144043
      ],
      "type": "VEC3"
    },
    {
      "bufferView": 2,
      "byteOffset": 305904,
      "componentType": 5126,
      "count": 25492,
      "max": [
        0.99962729215621948,
        0.99999815225601196,
        0.99991559982299805
      ],
      "min": [
        -0.99962729215621948,
        -0.99997133016586304,
        -1
      ],
      "type": "VEC3"
    },
    {
      "bufferView": 3,
      "componentType": 5126,
      "count": 25492,
      "max": [
        0.99997568130493164,
        0.99999856948852539,
        0.9996681809425354,
        1
      ],
      "min": [
        -0.99997568130493164,
        -1,
        -0.99999809265136719,
        -1
      ],
      "type": "VEC4"
    },
    {
      "bufferView": 1,
      "componentType": 5126,
      "count": 25492,
      "max": [
        0.5043100118637085,
        0.71877002716064453
      ],
      "min": [
        0.28872999548912048,
        0.05226999893784523
      ],
      "type": "VEC2"
    },
    {
      "bufferView": 0,
      "componentType": 5125,
      "count": 92304,
      "max": [
        25491
      ],
      "min": [
        0
      ],
      "type": "SCALAR"
    },
    {
      "bufferView": 2,
      "byteOffset": 611808,
      "componentType": 5126,
      "count": 3780,
      "max": [
        0.56567001342773438,
        -2.6276700496673584,
        3.4412200450897217
      ],
      "min": [
        -0.56567001342773438,
        -2.9557099342346191,
        3.0987000465393066
      ],
      "type": "VEC3"
    },
    {
      "bufferView": 2,
      "byteOffset": 657168,
      "componentType": 5126,
      "count": 3780,
      "max": [
        0.99908262491226196,
        1,
        0.9926605224609375
      ],
      "min": [
        -0.99908262491226196,
        -0.99913585186004639,
        -0.99832355976104736
      ],
      "type": "VEC3"
    },
    {
      "bufferView": 3,
      "byteOffset": 407872,
      "componentType": 5126,
      "count": 3780,
      "max": [
        0.9941481351852417,
        0.99303418397903442,
        1,
        1
      ],
      "min": [
        -0.9941481351852417,
        -0.98164641857147217,
        -0.050003521144390106,
        -1
      ],
      "type": "VEC4"
    },
    {
      "bufferView": 2,
      "byteOffset": 702528,
      "componentType": 5126,
      "count": 3780,
      "max": [
        1,
        1,
        1
      ],
      "min": [
        1,
        1,
        1
      ],
      "type": "VEC3"
    },
    {
      "bufferView": 1,
      "byteOffset": 203936,
      "componentType": 5126,
      "count": 3780,
      "max": [
        0.47145000100135803,
        0.79356998205184937
      ],
      "min": [
        0.4652400016784668,
        0.78736001253128052
      ],
      "type": "VEC2"
    },
    {
      "bufferView": 0,
      "byteOffset": 369216,
      "componentType": 5125,
      "count": 5760,
      "max": [
        3779
      ],
      "min": [
        0
      ],
      "type": "SCALAR"
    }
  ],
  "asset": {
    "extras": {
      "author": "timeforrick (https://sketchfab.com/timeforrick)",
      "license": "CC-BY-4.0 (http://creativecommons.org/licenses/by/4.0/)",
      "source": "https://sketchfab.com/models/646e334dea5249708138b0ea2d6a6fdb",
      "title": "Penguin (Club Penguin)"
    },
    "generator": "Sketchfab-3.54.8-rc1",
    "version": "2.0"
  },
  "bufferViews": [
    {
      "buffer": 0,
      "byteLength": 392256,
      "byteOffset": 0,
      "name": "floatBufferViews",
      "target": 34963
    },
    {
      "buffer": 0,
      "byteLength": 234176,
      "byteOffset": 392256,
      "byteStride": 8,
      "name": "floatBufferViews",
      "target": 34962
    },
    {
      "buffer": 0,
      "byteLength": 747888,
      "byteOffset": 626432,
      "byteStride": 12,
      "name": "floatBufferViews",
      "target": 34962
    },
    {
      "buffer": 0,
      "byteLength": 468352,
      "byteOffset": 1374320,
      "byteStride": 16,
      "name": "floatBufferViews",
      "target": 34962
    }
  ],
  "buffers": [
    {
      "byteLength": 1842672,
      "uri": "scene.bin"
    }
  ],
  "images": [
    {
      "uri": "textures/Material_baseColor.png"
    }
  ],
  "materials": [
    {
      "doubleSided": true,
      "emissiveFactor": [
        0,
        0,
        0
      ],
      "name": "Material",
      "pbrMetallicRoughness": {
        "baseColorFactor": [
          1,
          1,
          1,
          1
        ],
        "baseColorTexture": {
          "index": 0,
          "texCoord": 0
        },
        "metallicFactor": 0,
        "roughnessFactor": 0.59999999999999998
      }
    }
  ],
  "meshes": [
    {
      "name": "Cube_0",
      "primitives": [
        {
          "attributes": {
            "NORMAL": 1,
            "POSITION": 0,
            "TANGENT": 2,
            "TEXCOORD_0": 3
          },
          "indices": 4,
          "material": 0,
          "mode": 4
        }
      ]
    },
    {
      "name": "Cube.001_0",
      "primitives": [
        {
          "attributes": {
            "COLOR_0": 8,
            "NORMAL": 6,
            "POSITION": 5,
            "TANGENT": 7,
            "TEXCOORD_0": 9
          },
          "indices": 10,
          "material": 0,
          "mode": 4
        }
      ]
    }
  ],
  "nodes": [
    {
      "children": [
        1
      ],
      "name": "RootNode (gltf orientation matrix)",
      "rotation": [
        -0.70710678118654746,
        -0,
        -0,
        0.70710678118654757
      ]
    },
    {
      "children": [
        2
      ],
      "name": "RootNode (model correction matrix)"
    },
    {
      "children": [
        3,
        5,
        7
      ],
      "name": "Root"
    },
    {
      "children": [
        4
      ],
      "matrix": [
        -0.29086000000000006,
        0.95517000000000007,
        -0.05519000000000001,
        0,
        -0.77110000000000001,
        -0.19988000000000003,
        0.60452000000000006,
        0,
        0.56639000000000006,
        0.21839000000000003,
        0.7946700000000001,
        0,
        4.0762500000000008,
        1.00545,
        5.9038600000000008,
        1
      ],
      "name": "Lamp"
    },
    {
      "name": "Lamp"
    },
    {
      "children": [
        6
      ],
      "name": "Cube"
    },
    {
      "mesh": 0,
      "name": "Cube_0"
    },
    {
      "children": [
        8
      ],
      "matrix": [
        1,
        0,
        0,
        0,
        0,
        1,
        0,
        0,
        0,
        0,
        1,
        0,
        0,
        1.75343,
        0,
        1
      ],
      "name": "Cube.001"
    },
    {
      "mesh": 1,
      "name": "Cube.001_0"
    }
  ],
  "samplers": [
    {
      "magFilter": 9729,
      "minFilter": 9987,
      "wrapS": 10497,
      "wrapT": 10497
    }
  ],
  "scene": 0,
  "scenes": [
    {
      "name": "OSG_Scene",
      "nodes": [
        0
      ]
    }
  ],
  "textures": [
    {
      "sampler": 0,
      "source": 0
    }
  ]
}

