# 3ds Max Wavefront OBJ Exporter v0.97b - (c)2007 guruware
# File Created: 22.12.2017 07:20:54

mtllib au01_body_00a.mtl

#
# object polygon0
#

v  -2.0850 5.2651 1.4285
v  -2.5740 3.8958 1.4822
v  -1.6484 3.8860 2.5073
v  -2.8450 3.9678 0.1208
v  -2.3452 5.2852 0.2297
v  -2.5178 4.0623 -1.1980
v  -2.0825 5.3909 -0.9050
v  -1.1550 5.4792 -1.7249
v  -1.6106 6.9233 -0.6377
v  -0.8672 6.8923 -1.1932
v  -1.0359 8.2451 -0.6600
v  0.0000 8.2383 -1.0992
v  -0.7805 9.2795 -0.5162
v  0.0000 9.2512 -0.8621
v  -0.5337 9.8286 -0.2576
v  0.5337 9.8286 -0.2576
v  0.0000 10.0386 0.2236
v  -1.9343 6.4358 0.3313
v  -1.5542 6.9519 1.2536
v  -4.0270 7.0681 1.1629
v  -1.8540 7.5754 0.3510
v  -4.1506 7.5487 0.3193
v  -4.3550 7.0683 -0.5156
v  -6.5140 7.2744 1.1460
v  -6.6120 7.0071 0.8412
v  -7.0377 7.0347 1.3314
v  -6.3991 7.0070 1.4452
v  1.1550 5.4792 -1.7249
v  1.4236 4.1614 -2.1912
v  0.0000 4.2195 -2.6294
v  2.5178 4.0623 -1.1980
v  2.0825 5.3909 -0.9050
v  2.3452 5.2852 0.2297
v  1.6106 6.9233 -0.6377
v  1.9343 6.4358 0.3313
v  4.4523 7.0683 -0.4885
v  4.1972 6.6620 0.3306
v  6.2922 7.0070 1.6428
v  5.8877 7.0070 2.1394
v  6.5271 7.0347 2.2480
v  6.0972 7.2744 1.8965
v  -1.4551 8.2463 0.3098
v  -1.1426 8.2475 1.1008
v  -0.7837 9.3987 1.0075
v  -1.6279 7.6787 0.3547
v  -4.1981 6.6620 0.3279
v  3.9288 7.0681 1.1397
v  4.1508 7.5487 0.3164
v  1.8540 7.5754 0.3510
v  1.6279 7.6787 0.3547
v  1.4551 8.2463 0.3098
v  1.5542 6.9519 1.2536
v  -1.4236 4.1614 -2.1912
v  0.0000 5.5168 -2.0044
v  0.8672 6.8923 -1.1932
v  1.0359 8.2451 -0.6600
v  0.4592 9.8669 0.7863
v  1.1008 9.3313 0.2675
v  0.7837 9.3987 1.0075
v  1.1426 8.2475 1.1008
v  0.4634 8.2441 1.5280
v  0.0000 9.4260 1.3838
v  -0.4592 9.8669 0.7863
v  0.7805 9.2795 -0.5162
v  0.0000 6.9026 -1.4248
v  -0.4634 8.2441 1.5280
v  0.0000 8.2353 1.7107
v  -1.1008 9.3313 0.2675
v  -0.6797 6.8874 1.8588
v  -1.1394 5.2566 2.2412
v  2.8450 3.9678 0.1208
v  2.0850 5.2651 1.4285
v  2.5740 3.8958 1.4822
v  1.6484 3.8860 2.5073
v  1.1394 5.2566 2.2412
v  0.6797 6.8874 1.8588
v  2.4448 1.8962 1.4146
v  1.8169 2.8503 2.5698
v  1.6589 1.9226 2.4011
v  2.7195 2.8440 1.5166
v  2.6775 1.9158 0.0151
v  3.0139 2.9146 0.0544
v  2.2932 1.9814 -1.3521
v  2.6389 3.0151 -1.3630
v  1.5049 3.1018 -2.4380
v  -1.8169 2.8503 2.5698
v  -2.4448 1.8962 1.4146
v  -1.6589 1.9226 2.4011
v  -2.7195 2.8440 1.5166
v  -2.6775 1.9158 0.0151
v  -3.0139 2.9146 0.0544
v  -2.2932 1.9814 -1.3521
v  -2.6389 3.0151 -1.3630
v  1.3789 2.0510 -2.3084
v  0.0000 3.1538 -2.9067
v  0.0000 2.0776 -2.7188
v  -1.3789 2.0510 -2.3084
v  -1.5049 3.1018 -2.4380
v  1.0593 1.3291 2.2190
v  1.5415 1.0239 0.6482
v  0.0000 1.1062 2.1814
v  0.0000 0.7174 0.1251
v  -1.5415 1.0239 0.6482
v  -1.4587 1.1243 -1.0310
v  0.0000 1.1477 -1.7793
v  1.4587 1.1243 -1.0310
v  -1.0593 1.3291 2.2190
# 107 vertices

vn -0.8076 0.3357 0.4848
vn -0.8701 0.2247 0.4387
vn -0.7062 0.2366 0.6673
vn -0.9675 0.2528 -0.0096
vn -0.9409 0.3384 0.0129
vn -0.8396 0.2738 -0.4692
vn -0.8195 0.3511 -0.4529
vn -0.4449 0.3814 -0.8103
vn -0.6498 0.2981 -0.6993
vn -0.4071 0.3260 -0.8533
vn -0.6672 0.3017 -0.6811
vn 0.0000 0.2647 -0.9643
vn -0.6386 0.3935 -0.6613
vn 0.0000 0.4174 -0.9087
vn -0.4226 0.7987 -0.4283
vn 0.4226 0.7987 -0.4283
vn 0.0000 0.9988 -0.0488
vn -0.9142 -0.4007 0.0607
vn -0.6017 0.2619 0.7546
vn 0.0186 -0.0163 0.9997
vn -0.1869 0.9823 0.0141
vn -0.0634 0.9971 -0.0411
vn -0.2856 -0.0137 -0.9583
vn -0.2627 0.9607 0.0895
vn -0.6606 -0.3015 -0.6875
vn -0.9371 -0.1095 0.3313
vn -0.0925 -0.3039 0.9482
vn 0.4449 0.3814 -0.8103
vn 0.4883 0.3043 -0.8179
vn -0.0000 0.3284 -0.9445
vn 0.8396 0.2738 -0.4692
vn 0.8195 0.3511 -0.4529
vn 0.9409 0.3384 0.0129
vn 0.6510 0.2982 -0.6980
vn 0.9152 -0.3981 0.0622
vn 0.4263 -0.0118 -0.9045
vn 0.1216 -0.9910 -0.0553
vn 0.8488 -0.2984 -0.4364
vn -0.2372 -0.3033 0.9229
vn 0.7700 -0.1095 0.6286
vn 0.2147 0.9622 0.1676
vn -0.9454 0.3259 -0.0041
vn -0.7362 0.2970 0.6081
vn -0.6568 0.4618 0.5961
vn -0.8356 0.5465 0.0561
vn -0.0972 -0.9949 -0.0267
vn -0.1854 -0.0190 0.9825
vn 0.0903 0.9928 -0.0784
vn 0.1899 0.9817 0.0140
vn 0.8356 0.5465 0.0561
vn 0.9454 0.3259 -0.0041
vn 0.6037 0.2618 0.7530
vn -0.4883 0.3043 -0.8179
vn 0.0000 0.4136 -0.9105
vn 0.4071 0.3260 -0.8533
vn 0.6672 0.3017 -0.6811
vn 0.3853 0.8426 0.3763
vn 0.8753 0.4833 -0.0171
vn 0.6568 0.4618 0.5961
vn 0.7362 0.2970 0.6081
vn 0.4572 0.2582 0.8511
vn -0.0000 0.4968 0.8679
vn -0.3853 0.8426 0.3763
vn 0.6386 0.3935 -0.6613
vn 0.0000 0.3157 -0.9489
vn -0.4572 0.2582 0.8511
vn 0.0000 0.2648 0.9643
vn -0.8753 0.4833 -0.0171
vn -0.5480 0.2790 0.7886
vn -0.6087 0.3505 0.7118
vn 0.9675 0.2528 -0.0096
vn 0.8076 0.3357 0.4848
vn 0.8701 0.2247 0.4387
vn 0.7062 0.2366 0.6673
vn 0.6087 0.3505 0.7118
vn 0.5480 0.2790 0.7886
vn 0.7695 -0.5358 0.3476
vn 0.7642 -0.0424 0.6435
vn 0.6712 -0.4992 0.5480
vn 0.8985 -0.0810 0.4315
vn 0.8342 -0.5484 -0.0578
vn 0.9960 -0.0812 -0.0365
vn 0.7376 -0.4896 -0.4651
vn 0.8616 -0.0488 -0.5052
vn 0.5093 0.0262 -0.8602
vn -0.7642 -0.0424 0.6435
vn -0.7695 -0.5358 0.3476
vn -0.6712 -0.4992 0.5480
vn -0.8985 -0.0810 0.4315
vn -0.8342 -0.5484 -0.0578
vn -0.9960 -0.0812 -0.0365
vn -0.7376 -0.4896 -0.4651
vn -0.8616 -0.0488 -0.5052
vn 0.4495 -0.4500 -0.7716
vn 0.0000 0.0457 -0.9990
vn 0.0000 -0.4393 -0.8984
vn -0.4495 -0.4500 -0.7716
vn -0.5093 0.0262 -0.8602
vn 0.3651 -0.8749 0.3181
vn 0.4074 -0.9074 0.1031
vn -0.0000 -0.9760 0.2179
vn 0.0000 -0.9999 -0.0118
vn -0.4074 -0.9074 0.1031
vn -0.3942 -0.8674 -0.3037
vn 0.0000 -0.8625 -0.5060
vn 0.3942 -0.8674 -0.3037
vn -0.3651 -0.8749 0.3181
# 107 vertex normals

vt 0.2993 0.4925 0.0000
vt 0.3068 0.3909 0.0000
vt 0.2457 0.3795 0.0000
vt 0.3550 0.3963 0.0000
vt 0.3487 0.4929 0.0000
vt 0.4085 0.3976 0.0000
vt 0.4014 0.4997 0.0000
vt 0.4501 0.5019 0.0000
vt 0.3938 0.5718 0.0000
vt 0.4300 0.5763 0.0000
vt 0.3985 0.6343 0.0000
vt 0.4491 0.6423 0.0000
vt 0.3823 0.7268 0.0000
vt 0.4167 0.7424 0.0000
vt 0.3786 0.7637 0.0000
vt 0.3617 0.7874 0.0000
vt 0.7700 0.9470 0.0000
vt 0.6415 0.9607 0.0000
vt 0.5147 0.9465 0.0000
vt 0.5411 0.7574 0.0000
vt 0.5384 0.8287 0.0000
vt 0.6412 0.7614 0.0000
vt 0.7419 0.7575 0.0000
vt 0.6422 0.5659 0.0000
vt 0.7068 0.5582 0.0000
vt 0.6424 0.4611 0.0000
vt 0.5779 0.5582 0.0000
vt 0.4757 0.3926 0.0000
vt 0.5421 0.3909 0.0000
vt 0.6417 0.7614 0.0000
vt 0.3438 0.6378 0.0000
vt 0.3086 0.6379 0.0000
vt 0.3099 0.7312 0.0000
vt 0.5282 0.8354 0.0000
vt 0.4971 0.5116 0.0000
vt 0.3181 0.7716 0.0000
vt 0.3343 0.7899 0.0000
vt 0.3483 0.7233 0.0000
vt 0.1956 0.0000 0.0000
vt 0.2917 0.6699 0.0000
vt 0.1464 0.4512 0.0000
vt 0.4670 0.5854 0.0000
vt 0.5450 0.0000 0.0000
vt 0.5935 0.4407 0.0000
vt 0.2542 0.5770 0.0000
vt 0.2975 0.5714 0.0000
vt 0.2417 0.4889 0.0000
vt 0.2727 0.6456 0.0000
vt 0.3155 0.3301 0.0000
vt 0.2509 0.3477 0.0000
vt 0.2561 0.3160 0.0000
vt 0.3111 0.3605 0.0000
vt 0.3582 0.3335 0.0000
vt 0.3566 0.3649 0.0000
vt 0.4097 0.3334 0.0000
vt 0.4091 0.3655 0.0000
vt 0.4746 0.3542 0.0000
vt 0.4735 0.3158 0.0000
vt 0.5380 0.3413 0.0000
vt 0.5339 0.2918 0.0000
vt 0.2479 0.2581 0.0000
vt 0.3331 0.2542 0.0000
vt 0.2299 0.2244 0.0000
vt 0.3526 0.2021 0.0000
vt 0.4267 0.2612 0.0000
vt 0.4852 0.2346 0.0000
# 66 texture coords

g polygon0
usemtl au01_body_00_00a
s 1
f 1/1/1 2/2/2 3/3/3 
f 4/4/4 2/2/2 1/1/1 
f 5/5/5 4/4/4 1/1/1 
f 6/6/6 4/4/4 5/5/5 
f 7/7/7 6/6/6 5/5/5 
f 8/8/8 6/6/6 7/7/7 
f 9/9/9 8/8/8 7/7/7 
f 10/10/10 8/8/8 9/9/9 
f 11/11/11 10/10/10 9/9/9 
f 12/12/12 10/10/10 11/11/11 
f 13/13/13 12/12/12 11/11/11 
f 14/14/14 12/12/12 13/13/13 
f 15/15/15 14/14/14 13/13/13 
f 16/15/16 14/14/14 15/15/15 
f 17/16/17 16/15/16 15/15/15 
f 5/5/5 9/17/9 7/7/7 
f 18/18/18 9/17/9 5/5/5 
f 19/19/19 18/18/18 5/5/5 
f 20/20/20 18/18/18 19/19/19 
f 21/21/21 20/20/20 19/19/19 
f 22/22/22 20/20/20 21/21/21 
f 23/23/23 22/22/22 21/21/21 
f 24/24/24 22/22/22 23/23/23 
f 25/25/25 24/24/24 23/23/23 
f 26/26/26 24/24/24 25/25/25 
f 27/27/27 26/26/26 25/25/25 
f 24/24/24 26/26/26 27/27/27 
f 20/20/20 24/24/24 27/27/27 
f 22/22/22 24/24/24 20/20/20 
f 28/8/28 29/28/29 30/29/30 
f 31/6/31 29/28/29 28/8/28 
f 32/7/32 31/6/31 28/8/28 
f 33/5/33 31/6/31 32/7/32 
f 34/17/34 33/5/33 32/7/32 
f 35/18/35 33/5/33 34/17/34 
f 36/23/36 35/18/35 34/17/34 
f 37/30/37 35/18/35 36/23/36 
f 38/25/38 37/30/37 36/23/36 
f 39/27/39 37/30/37 38/25/38 
f 40/26/40 39/27/39 38/25/38 
f 41/24/41 39/27/39 40/26/40 
f 38/25/38 41/24/41 40/26/40 
f 36/23/36 41/24/41 38/25/38 
f 42/31/42 43/32/43 44/33/44 
f 19/19/19 43/32/43 42/31/42 
f 45/34/45 19/19/19 42/31/42 
f 21/21/21 19/19/19 45/34/45 
f 9/17/9 21/21/21 45/34/45 
f 23/23/23 21/21/21 9/17/9 
f 18/18/18 23/23/23 9/17/9 
f 46/30/46 23/23/23 18/18/18 
f 20/20/20 46/30/46 18/18/18 
f 27/27/27 46/30/46 20/20/20 
f 41/24/41 47/20/47 39/27/39 
f 48/22/48 47/20/47 41/24/41 
f 36/23/36 48/22/48 41/24/41 
f 49/21/49 48/22/48 36/23/36 
f 34/17/34 49/21/49 36/23/36 
f 50/34/50 49/21/49 34/17/34 
f 51/31/51 50/34/50 34/17/34 
f 52/19/52 50/34/50 51/31/51 
f 8/8/8 53/28/53 6/6/6 
f 30/29/30 53/28/53 8/8/8 
f 54/35/54 30/29/30 8/8/8 
f 28/8/28 30/29/30 54/35/54 
f 55/10/55 28/8/28 54/35/54 
f 34/9/34 28/8/28 55/10/55 
f 56/11/56 34/9/34 55/10/55 
f 57/36/57 16/15/16 17/37/17 
f 58/38/58 16/15/16 57/36/57 
f 59/33/59 58/38/58 57/36/57 
f 51/31/51 58/38/58 59/33/59 
f 60/32/60 51/31/51 59/33/59 
f 52/19/52 51/31/51 60/32/60 
f 59/39/59 61/40/61 60/32/60 
f 62/41/62 61/40/61 59/39/59 
f 57/36/57 62/41/62 59/39/59 
f 63/36/63 62/41/62 57/36/57 
f 17/37/17 63/36/63 57/36/57 
f 56/11/56 51/31/51 34/17/34 
f 58/38/58 51/31/51 56/11/56 
f 64/13/64 58/38/58 56/11/56 
f 16/15/16 58/38/58 64/13/64 
f 14/14/14 16/15/16 64/13/64 
f 10/10/10 54/35/54 8/8/8 
f 65/42/65 54/35/54 10/10/10 
f 12/12/12 65/42/65 10/10/10 
f 55/10/55 65/42/65 12/12/12 
f 56/11/56 55/10/55 12/12/12 
f 66/43/66 44/39/44 43/32/43 
f 62/41/62 44/39/44 66/43/66 
f 67/44/67 62/41/62 66/43/66 
f 61/40/61 62/41/62 67/44/67 
f 15/15/15 63/36/63 17/16/17 
f 68/38/68 63/36/63 15/15/15 
f 13/13/13 68/38/68 15/15/15 
f 11/11/11 68/38/68 13/13/13 
f 68/38/68 44/33/44 63/36/63 
f 42/31/42 44/33/44 68/38/68 
f 11/11/11 42/31/42 68/38/68 
f 9/17/9 42/31/42 11/11/11 
f 35/18/35 52/19/52 33/5/33 
f 47/20/47 52/19/52 35/18/35 
f 37/30/37 47/20/47 35/18/35 
f 39/27/39 47/20/47 37/30/37 
f 1/1/1 69/45/69 19/46/19 
f 70/47/70 69/45/69 1/1/1 
f 3/3/3 70/47/70 1/1/1 
f 33/5/33 71/4/71 31/6/31 
f 72/1/72 71/4/71 33/5/33 
f 52/19/52 72/1/72 33/5/33 
f 49/21/49 47/20/47 48/22/48 
f 52/19/52 47/20/47 49/21/49 
f 50/34/50 52/19/52 49/21/49 
f 72/1/72 73/2/73 71/4/71 
f 74/3/74 73/2/73 72/1/72 
f 75/47/75 74/3/74 72/1/72 
f 43/32/43 69/45/69 66/48/66 
f 19/46/19 69/45/69 43/32/43 
f 72/1/72 76/45/76 75/47/75 
f 52/46/52 76/45/76 72/1/72 
f 46/30/46 25/25/25 23/23/23 
f 27/27/27 25/25/25 46/30/46 
f 76/45/76 60/32/60 61/48/61 
f 52/46/52 60/32/60 76/45/76 
f 64/13/64 12/12/12 14/14/14 
f 56/11/56 12/12/12 64/13/64 
f 62/41/62 63/36/63 44/39/44 
f 19/19/19 5/5/5 1/1/1 
f 34/9/34 32/7/32 28/8/28 
f 9/17/9 45/34/45 42/31/42 
f 65/42/65 55/10/55 54/35/54 
f 77/49/77 78/50/78 79/51/79 
f 80/52/80 78/50/78 77/49/77 
f 81/53/81 80/52/80 77/49/77 
f 82/54/82 80/52/80 81/53/81 
f 83/55/83 82/54/82 81/53/81 
f 84/56/84 82/54/82 83/55/83 
f 85/57/85 84/56/84 83/55/83 
f 31/6/31 84/56/84 85/57/85 
f 29/28/29 31/6/31 85/57/85 
f 71/4/71 84/56/84 31/6/31 
f 82/54/82 84/56/84 71/4/71 
f 73/2/73 82/54/82 71/4/71 
f 80/52/80 82/54/82 73/2/73 
f 74/3/74 80/52/80 73/2/73 
f 78/50/78 80/52/80 74/3/74 
f 86/50/86 87/49/87 88/51/88 
f 89/52/89 87/49/87 86/50/86 
f 3/3/3 89/52/89 86/50/86 
f 2/2/2 89/52/89 3/3/3 
f 89/52/89 90/53/90 87/49/87 
f 91/54/91 90/53/90 89/52/89 
f 2/2/2 91/54/91 89/52/89 
f 4/4/4 91/54/91 2/2/2 
f 91/54/91 92/55/92 90/53/90 
f 93/56/93 92/55/92 91/54/91 
f 4/4/4 93/56/93 91/54/91 
f 6/6/6 93/56/93 4/4/4 
f 94/58/94 85/57/85 83/55/83 
f 95/59/95 85/57/85 94/58/94 
f 96/60/96 95/59/95 94/58/94 
f 97/58/97 95/59/95 96/60/96 
f 95/59/95 29/28/29 85/57/85 
f 30/29/30 29/28/29 95/59/95 
f 53/28/53 30/29/30 95/59/95 
f 98/57/98 53/28/53 95/59/95 
f 6/6/6 53/28/53 98/57/98 
f 93/56/93 6/6/6 98/57/98 
f 97/58/97 98/57/98 95/59/95 
f 92/55/92 98/57/98 97/58/97 
f 92/55/92 93/56/93 98/57/98 
f 99/61/99 77/49/77 79/51/79 
f 100/62/100 77/49/77 99/61/99 
f 101/63/101 100/62/100 99/61/99 
f 102/64/102 100/62/100 101/63/101 
f 103/62/103 102/64/102 101/63/101 
f 104/65/104 102/64/102 103/62/103 
f 90/53/90 104/65/104 103/62/103 
f 92/55/92 104/65/104 90/53/90 
f 97/58/97 104/65/104 92/55/92 
f 105/66/105 104/65/104 97/58/97 
f 96/60/96 105/66/105 97/58/97 
f 94/58/94 105/66/105 96/60/96 
f 105/66/105 102/64/102 104/65/104 
f 106/65/106 102/64/102 105/66/105 
f 94/58/94 106/65/106 105/66/105 
f 83/55/83 106/65/106 94/58/94 
f 107/61/107 103/62/103 101/63/101 
f 87/49/87 103/62/103 107/61/107 
f 88/51/88 87/49/87 107/61/107 
f 106/65/106 100/62/100 102/64/102 
f 81/53/81 100/62/100 106/65/106 
f 83/55/83 81/53/81 106/65/106 
f 87/49/87 90/53/90 103/62/103 
f 77/49/77 100/62/100 81/53/81 
# 0 polygons - 196 triangles

#
# object polygon1
#

v  0.1997 0.1025 2.5731
v  0.0885 0.8789 1.5352
v  0.0905 0.0949 1.5391
v  0.1978 0.9097 2.5654
v  1.8320 0.9120 2.4529
v  3.3629 0.9096 1.8696
v  3.3647 0.1024 1.8774
v  3.0460 0.8789 0.8851
v  3.0464 0.0948 0.8892
v  0.6023 0.0758 -1.2588
v  0.6005 0.8020 -1.2666
v  1.4463 0.8020 -1.4527
v  1.4480 0.0759 -1.4449
v  -0.0907 0.8789 1.6290
v  -0.2769 0.1024 2.6560
v  -0.0928 0.0948 1.6326
v  -0.2743 0.9096 2.6484
v  -3.3806 0.9097 1.7247
v  -1.8961 0.9120 2.4176
v  -3.3831 0.1025 1.7324
v  -1.8987 0.1049 2.4252
v  1.8340 0.1048 2.4607
v  -2.9932 0.8788 0.7658
v  -0.3979 0.8020 -1.2026
v  -0.4003 0.0759 -1.1951
v  -1.2303 0.0759 -1.4420
v  -2.9938 0.0949 0.7699
v  -1.2279 0.8020 -1.4497
# 28 vertices

vn -0.6423 0.0056 0.7665
vn -0.7389 0.6723 -0.0456
vn -0.9945 -0.0020 0.1051
vn -0.5254 0.5895 0.6136
vn 0.1569 0.6827 0.7136
vn 0.7309 0.5906 0.3421
vn 0.9012 0.0062 0.4335
vn 0.6565 0.6725 -0.3416
vn 0.8978 -0.0020 -0.4404
vn -0.7201 -0.0091 -0.6938
vn -0.9837 -0.0033 -0.1799
vn -0.5778 0.5872 -0.5668
vn 0.2917 0.5864 -0.7556
vn 0.3687 -0.0092 -0.9295
vn 0.7402 0.6724 0.0081
vn 0.5849 0.0057 0.8111
vn 0.9842 -0.0018 0.1770
vn 0.4796 0.5895 0.6500
vn -0.7538 0.5906 0.2881
vn -0.2082 0.6827 0.7004
vn -0.9302 0.0062 0.3669
vn -0.2850 0.0099 0.9585
vn 0.0016 -1.0000 0.0074
vn 0.0016 -1.0000 0.0075
vn 0.0021 -1.0000 0.0097
vn 0.0016 -1.0000 0.0072
vn 0.0015 -1.0000 0.0071
vn 0.0016 -1.0000 0.0070
vn -0.6300 0.6725 -0.3884
vn 0.6174 0.5873 -0.5233
vn 0.7686 -0.0089 -0.6397
vn -0.3004 -0.0089 -0.9538
vn -0.6375 -0.6775 -0.3669
vn -0.0021 -1.0000 0.0070
vn -0.0022 -1.0000 0.0073
vn -0.0021 -1.0000 0.0069
vn -0.2361 0.5865 -0.7748
vn -0.0029 -1.0000 0.0095
vn 0.2147 0.0100 0.9766
vn 0.9941 -0.0031 -0.1081
# 40 vertex normals

g polygon1
usemtl au01_foot_00_00a
s 1
f 108//108 109//109 110//110 
f 111//111 109//109 108//108 
f 112//112 111//111 108//108 
f 113//113 111//111 112//112 
f 114//114 113//113 112//112 
f 115//115 113//113 114//114 
f 116//116 115//115 114//114 
s 2
f 109//109 117//117 110//118 
s 3
f 118//119 117//117 109//109 
s 1
f 115//115 118//119 109//109 
s 3
f 119//120 118//119 115//115 
s 2
f 116//116 119//120 115//115 
s 3
f 120//121 119//120 116//116 
s 1
f 121//122 122//123 123//124 
f 124//125 122//123 121//122 
f 125//126 124//125 121//122 
f 126//127 124//125 125//126 
f 127//128 126//127 125//126 
f 128//129 126//127 127//128 
s 4
f 108//130 114//131 129//132 
f 116//133 114//131 108//130 
f 110//134 116//133 108//130 
f 117//135 116//133 110//134 
s 1
f 121//122 130//136 125//126 
f 131//137 130//136 121//122 
s 5
f 132//138 131//137 121//122 
s 1
f 133//139 131//137 132//138 
s 2
f 134//140 123//141 122//142 
f 132//143 123//141 134//140 
f 133//143 132//143 134//140 
s 3
f 135//144 130//136 131//137 
s 6
f 134//140 130//136 135//144 
s 5
f 133//139 134//140 135//144 
s 2
f 127//142 122//142 128//145 
f 134//140 122//142 127//142 
s 1
f 113//113 109//109 111//111 
f 115//115 109//109 113//113 
f 112//112 129//146 114//114 
f 108//108 129//146 112//112 
f 118//119 120//121 117//117 
f 119//120 120//121 118//119 
f 127//128 130//136 134//140 
f 125//126 130//136 127//128 
f 126//127 122//123 124//125 
f 128//129 122//123 126//127 
s 4
f 120//135 116//133 117//135 
f 123//147 132//138 121//122 
s 1
f 133//139 135//144 131//137 
# 0 polygons - 48 triangles

#
# object polygon2
#

v  -0.6797 6.8874 1.8588
v  0.0000 8.2353 1.7107
v  -0.4634 8.2441 1.5280
v  0.0000 6.8696 2.0017
v  -1.1394 5.2566 2.2412
v  0.0000 5.2451 2.5476
v  -1.6484 3.8860 2.5073
v  0.0000 3.8770 2.9878
v  -1.8169 2.8503 2.5698
v  0.0000 2.8455 3.1108
v  -1.6589 1.9226 2.4011
v  0.0000 1.9734 2.8889
v  -1.0593 1.3291 2.2190
v  0.0000 1.1062 2.1814
v  1.0593 1.3291 2.2190
v  1.6589 1.9226 2.4011
v  0.6797 6.8874 1.8588
v  0.4634 8.2441 1.5280
v  1.1394 5.2566 2.2412
v  1.6484 3.8860 2.5073
v  1.8169 2.8503 2.5698
# 21 vertices

vn -0.2092 0.2500 0.9454
vn 0.0000 0.2680 0.9634
vn -0.3481 0.2741 0.8965
vn 0.0000 0.2538 0.9673
vn -0.2402 0.2844 0.9281
vn 0.0000 0.3062 0.9520
vn -0.2704 0.1824 0.9453
vn 0.0000 0.2078 0.9782
vn -0.2832 -0.0576 0.9573
vn -0.0000 -0.0603 0.9982
vn -0.2623 -0.3240 0.9090
vn 0.0000 -0.4092 0.9124
vn -0.1885 -0.5418 0.8191
vn 0.0000 -0.6322 0.7748
vn 0.1885 -0.5418 0.8191
vn 0.2623 -0.3240 0.9090
vn 0.2092 0.2500 0.9454
vn 0.3481 0.2741 0.8965
vn 0.2402 0.2844 0.9281
vn 0.2704 0.1824 0.9453
vn 0.2832 -0.0576 0.9573
# 21 vertex normals

g polygon2
usemtl au01_white_00_00a
s 1
f 136//148 137//149 138//150 
f 139//151 137//149 136//148 
f 140//152 139//151 136//148 
f 141//153 139//151 140//152 
f 142//154 141//153 140//152 
f 143//155 141//153 142//154 
f 144//156 143//155 142//154 
f 145//157 143//155 144//156 
f 146//158 145//157 144//156 
f 147//159 145//157 146//158 
f 148//160 147//159 146//158 
f 149//161 147//159 148//160 
f 150//162 147//159 149//161 
f 151//163 147//159 150//162 
f 137//149 152//164 153//165 
f 139//151 152//164 137//149 
f 139//151 154//166 152//164 
f 141//153 154//166 139//151 
f 141//153 155//167 154//166 
f 143//155 155//167 141//153 
f 143//155 156//168 155//167 
f 145//157 156//168 143//155 
f 151//163 145//157 147//159 
f 156//168 145//157 151//163 
# 0 polygons - 24 triangles

#
# object polygon3
#

v  -0.4604 8.1255 1.6224
v  -0.4344 9.1137 1.3557
v  -0.6088 8.1573 1.5136
v  -0.2284 9.2015 1.4045
v  0.0000 8.0962 1.8026
v  0.0000 9.1395 1.4705
v  0.2284 9.2015 1.4045
v  -0.6978 8.5819 1.3247
v  -0.6945 8.3196 1.3996
v  -0.6040 8.8695 1.3110
v  0.4604 8.1255 1.6224
v  0.4344 9.1137 1.3557
v  0.6040 8.8695 1.3110
v  0.6088 8.1573 1.5136
v  0.6978 8.5819 1.3247
v  0.6945 8.3196 1.3996
# 16 vertices

vn -0.4273 0.2475 0.8696
vn -0.3864 0.2500 0.8878
vn -0.5553 0.2291 0.7995
vn -0.2711 0.2736 0.9229
vn 0.0000 0.2768 0.9609
vn 0.0000 0.3033 0.9529
vn 0.2711 0.2736 0.9229
vn -0.5834 0.2250 0.7804
vn -0.6149 0.2095 0.7603
vn -0.5515 0.2317 0.8013
vn 0.4275 0.2478 0.8694
vn 0.3864 0.2498 0.8878
vn 0.5504 0.2311 0.8023
vn 0.5547 0.2300 0.7997
vn 0.5834 0.2250 0.7804
vn 0.6149 0.2095 0.7603
# 16 vertex normals

vt 0.7646 0.3057 0.0000
vt 0.7974 0.8322 0.0000
vt 0.8335 0.3492 0.0000
vt 0.6338 0.9177 0.0000
vt 0.4973 0.2772 0.0000
vt 0.4973 0.8704 0.0000
vt 0.9080 0.6035 0.0000
vt 0.9025 0.3927 0.0000
vt 0.8527 0.7179 0.0000
# 9 texture coords

g polygon3
usemtl au01_eye_00_00a
s 1
f 157/67/169 158/68/170 159/69/171 
f 160/70/172 158/68/170 157/67/169 
f 161/71/173 160/70/172 157/67/169 
f 162/72/174 160/70/172 161/71/173 
f 163/70/175 162/72/174 161/71/173 
f 159/69/171 164/73/176 165/74/177 
f 166/75/178 164/73/176 159/69/171 
f 158/68/170 166/75/178 159/69/171 
f 167/67/179 163/70/175 161/71/173 
f 168/68/180 163/70/175 167/67/179 
f 169/75/181 168/68/180 167/67/179 
f 170/69/182 169/75/181 167/67/179 
f 171/73/183 169/75/181 170/69/182 
f 172/74/184 171/73/183 170/69/182 
# 0 polygons - 14 triangles

#
# object polygon4
#

v  -0.3500 8.2962 2.5335
v  -0.4630 8.2666 1.5637
v  -0.7515 7.8742 1.5212
v  0.0000 8.3995 1.6297
v  0.0000 8.4129 2.5468
v  0.3500 8.2962 2.5335
v  0.0000 8.2518 3.0783
v  0.3716 7.9516 3.0899
v  0.0000 7.9498 3.2071
v  0.0000 7.6863 3.0756
v  -0.3716 7.9516 3.0899
v  -0.4100 7.5318 2.5537
v  -0.6146 7.9061 2.5437
v  -0.5499 7.4604 1.5675
v  0.4630 8.2666 1.5637
v  0.7515 7.8742 1.5212
v  0.6146 7.9061 2.5437
v  0.5499 7.4604 1.5675
v  0.4100 7.5318 2.5537
# 19 vertices

vn -0.5828 0.7921 0.1815
vn -0.6126 0.7890 0.0473
vn -0.9892 0.0778 0.1246
vn 0.0000 1.0000 -0.0010
vn 0.0000 0.9903 0.1386
vn 0.5828 0.7921 0.1815
vn 0.0000 0.7605 0.6493
vn 0.6850 0.0293 0.7280
vn 0.0000 -0.0288 0.9996
vn -0.0000 -0.7342 0.6789
vn -0.6850 0.0293 0.7280
vn -0.4892 -0.8262 0.2793
vn -0.9632 0.0515 0.2637
vn -0.5634 -0.8163 0.1273
vn 0.6126 0.7890 0.0473
vn 0.9892 0.0778 0.1246
vn 0.9632 0.0515 0.2637
vn 0.5634 -0.8163 0.1273
vn 0.4892 -0.8262 0.2793
# 19 vertex normals

g polygon4
usemtl au01_mouth_00_00a
s 1
f 173//185 174//186 175//187 
f 176//188 174//186 173//185 
f 177//189 176//188 173//185 
f 178//190 176//188 177//189 
f 179//191 178//190 177//189 
f 180//192 178//190 179//191 
f 181//193 180//192 179//191 
f 182//194 180//192 181//193 
f 183//195 182//194 181//193 
f 184//196 182//194 183//195 
f 185//197 184//196 183//195 
f 186//198 184//196 185//197 
f 175//187 186//198 185//197 
f 178//190 187//199 176//188 
f 188//200 187//199 178//190 
f 189//201 188//200 178//190 
f 190//202 188//200 189//201 
f 191//203 190//202 189//201 
f 186//198 190//202 191//203 
f 184//196 186//198 191//203 
f 180//192 189//201 178//190 
f 191//203 189//201 180//192 
f 182//194 191//203 180//192 
f 184//196 191//203 182//194 
f 179//191 183//195 181//193 
f 173//185 183//195 179//191 
f 177//189 173//185 179//191 
f 173//185 185//197 183//195 
f 175//187 185//197 173//185 
# 0 polygons - 29 triangles

