# 3ds Max Wavefront OBJ Exporter v0.97b - (c)2007 guruware
# File Created: 22.12.2017 07:21:45

mtllib au02_body_00a.mtl

#
# object polygon0
#

v  1.2571 2.1543 1.0134
v  1.6941 0.9082 -0.6348
v  1.6335 1.6763 -0.6450
v  1.2769 0.9053 1.1565
v  1.1152 2.6531 -0.8674
v  0.0000 1.2046 -1.8337
v  0.0000 2.3887 -1.4880
v  0.0000 1.9971 1.6494
v  0.0000 0.7693 1.7029
v  -1.1152 2.6531 -0.8674
v  -1.6335 1.6763 -0.6450
v  -1.2769 0.9053 1.1565
v  -1.2571 2.1543 1.0134
v  -1.6941 0.9082 -0.6348
v  0.0000 0.0845 1.0530
v  0.0000 -0.0449 -0.0803
v  1.0559 0.1677 0.0569
v  1.8726 2.1758 -0.3638
v  1.4297 2.8721 0.1680
v  0.8433 3.0503 0.9368
v  1.8975 3.0537 0.8875
v  2.1216 2.2935 0.5330
v  1.0251 3.7646 1.0029
v  0.0000 3.2747 0.9763
v  0.6536 3.3096 0.2407
v  0.8979 2.6533 1.0540
v  1.4827 2.4160 0.2166
v  -0.0027 3.0935 -0.9500
v  1.9331 1.7744 0.5498
v  1.3318 1.8337 0.4929
v  0.0000 0.1721 -1.2681
v  1.1165 2.2336 -1.5981
v  -1.0559 0.1677 0.0569
v  -1.8726 2.1758 -0.3638
v  -1.4297 2.8721 0.1680
v  -0.8433 3.0503 0.9368
v  -1.8975 3.0537 0.8875
v  -2.1216 2.2935 0.5330
v  -1.0251 3.7646 1.0029
v  -0.6536 3.3096 0.2407
v  -0.8979 2.6533 1.0540
v  -1.4827 2.4160 0.2166
v  0.0027 3.0935 -0.9500
v  -1.9331 1.7744 0.5498
v  -1.3318 1.8337 0.4929
v  -1.1165 2.2336 -1.5981
# 46 vertices

vn 0.7211 0.2312 0.6531
vn 0.8838 -0.3155 -0.3454
vn 0.9139 0.1469 -0.3784
vn 0.7287 -0.3021 0.6146
vn 0.6498 0.0696 -0.7569
vn 0.0000 -0.1146 -0.9934
vn -0.0000 0.2803 -0.9599
vn 0.0000 0.2202 0.9754
vn 0.0000 -0.3409 0.9401
vn -0.6498 0.0696 -0.7569
vn -0.9139 0.1469 -0.3784
vn -0.7287 -0.3021 0.6146
vn -0.7211 0.2312 0.6531
vn -0.8838 -0.3155 -0.3454
vn 0.0000 -0.8749 0.4844
vn -0.0000 -0.9990 -0.0444
vn 0.5407 -0.8404 0.0364
vn 0.6531 0.6760 -0.3413
vn 0.4396 0.8082 -0.3919
vn 0.4795 0.7880 -0.3862
vn 0.0142 -0.9716 0.2361
vn 0.5488 0.8029 0.2325
vn 0.2333 0.2702 0.9341
vn 0.5566 0.7092 0.4328
vn 0.0207 -0.0974 0.9950
vn -0.0000 0.2499 0.9683
vn 0.9224 -0.2045 -0.3276
vn 0.2491 0.9635 -0.0980
vn 0.0360 0.9785 -0.2031
vn 0.0131 0.9382 0.3459
vn 0.4083 0.3691 0.8349
vn 0.9315 -0.0851 0.3537
vn 0.1903 0.8561 -0.4804
vn -0.2954 -0.9365 0.1892
vn 0.8484 0.1526 0.5069
vn 0.8566 -0.5154 -0.0246
vn -0.1320 -0.8524 0.5060
vn -0.0745 -0.9713 -0.2259
vn -0.4023 0.8590 -0.3167
vn 0.0000 0.9728 -0.2315
vn 0.9796 0.1743 0.1002
vn 0.4364 -0.0450 -0.8986
vn -0.0000 -0.7722 -0.6354
vn -0.0712 -0.8651 0.4965
vn -0.2382 -0.9653 0.1072
vn 0.2204 0.7536 -0.6193
vn 0.0000 0.6068 -0.7948
vn -0.5407 -0.8404 0.0364
vn -0.6531 0.6760 -0.3413
vn -0.4795 0.7880 -0.3862
vn -0.4396 0.8082 -0.3919
vn -0.0142 -0.9716 0.2361
vn -0.5488 0.8029 0.2325
vn -0.5566 0.7092 0.4328
vn -0.2333 0.2702 0.9341
vn -0.0207 -0.0974 0.9950
vn -0.9224 -0.2045 -0.3276
vn -0.2491 0.9635 -0.0980
vn -0.0131 0.9382 0.3459
vn -0.0360 0.9785 -0.2031
vn -0.4083 0.3691 0.8349
vn -0.9315 -0.0851 0.3537
vn -0.1903 0.8561 -0.4804
vn -0.8484 0.1526 0.5069
vn 0.2954 -0.9365 0.1892
vn -0.8566 -0.5154 -0.0246
vn 0.0745 -0.9713 -0.2259
vn 0.1320 -0.8524 0.5060
vn 0.4023 0.8590 -0.3167
vn -0.9796 0.1743 0.1002
vn -0.4364 -0.0450 -0.8986
vn 0.0712 -0.8651 0.4965
vn 0.2382 -0.9653 0.1072
vn -0.2204 0.7536 -0.6193
# 74 vertex normals

vt 0.8178 0.5262 0.0000
vt 0.8685 0.2645 0.0000
vt 0.8564 0.4820 0.0000
vt 0.8002 0.2723 0.0000
vt 0.6159 0.6205 0.0000
vt 0.5800 0.3429 0.0000
vt 0.0000 0.0000 0.0000
vt 0.5000 0.5969 0.0000
vt 0.6795 0.3563 0.0000
vt 0.5000 0.3445 0.0000
vt 0.5000 0.0707 0.0000
vt 0.5000 0.0453 0.0000
vt 0.7296 0.0906 0.0000
vt 0.9040 0.5498 0.0000
vt 0.7931 0.6593 0.0000
vt 0.8505 0.7228 0.0000
vt 0.7159 0.8148 0.0000
vt 0.9519 0.7874 0.0000
vt 1.0000 0.5963 0.0000
vt 0.7100 0.9344 0.0000
vt 0.5752 0.8823 0.0000
vt 0.7335 0.8573 0.0000
vt 0.7789 0.6816 0.0000
vt 0.7720 0.0000 0.0000
vt 0.7834 0.6559 0.0000
vt 0.5701 0.6775 0.0000
vt 0.7981 0.6770 0.0000
vt 0.9550 0.4795 0.0000
vt 0.8862 0.5025 0.0000
vt 0.7378 0.9634 0.0000
vt 1.0000 0.0000 0.0000
vt 0.8661 0.6052 0.0000
vt 0.8202 0.6868 0.0000
vt 0.5000 0.0995 0.0000
vt 0.4362 0.3802 0.0000
vt 0.5031 0.5000 0.0000
vt 0.7702 0.5554 0.0000
vt 0.3779 0.0000 0.0000
vt 0.0034 0.3541 0.0000
vt 0.8042 0.5757 0.0000
vt 0.8348 0.5067 0.0000
vt 0.5000 0.1761 0.0000
# 42 texture coords

g polygon0
usemtl au02_body_00_00a
s 1
f 1/1/1 2/2/2 3/3/3 
f 1/1/1 4/4/4 2/2/2 
f 5/5/5 6/6/6 7/7/7 
s 5
f 5/5/5 3/3/3 6/6/6 
s 1
f 8/8/8 4/9/4 1/1/1 
f 8/8/8 9/10/9 4/9/4 
f 6/6/6 10/5/10 7/7/7 
s 5
f 6/6/6 11/3/11 10/5/10 
s 1
f 12/9/12 8/8/8 13/1/13 
f 12/9/12 9/10/9 8/8/8 
f 14/2/14 13/1/13 11/3/11 
f 14/2/14 12/4/12 13/1/13 
f 15/11/15 16/12/16 17/13/17 
s 2
f 18/14/18 5/15/19 19/16/20 
s off
f 20/17/21 19/16/21 21/18/21 
s 1
f 19/16/22 20/17/23 22/19/24 
f 23/20/25 24/21/26 20/17/23 
s off
f 20/17/27 25/22/27 23/20/27 
s 2
f 21/18/28 25/22/29 20/17/30 
s 1
f 8/8/8 1/1/1 26/23/31 
s 4
f 27/24/32 3/3/3 5/25/5 
s 2
f 28/26/33 25/22/29 5/15/19 
s 1
f 8/8/8 26/23/31 24/21/26 
s 4
f 27/27/32 18/14/34 19/16/35 
s 2
f 29/28/36 1/1/37 30/29/38 
s 1
f 20/17/23 24/21/26 26/23/31 
s 2
f 23/20/39 25/22/29 24/21/40 
s 4
f 5/7/5 18/30/34 27/31/32 
s 1
f 15/11/15 17/13/17 4/4/4 
s 2
f 19/16/20 25/22/29 21/18/28 
f 28/26/33 24/21/40 25/22/29 
s 1
f 27/32/41 26/23/31 29/28/36 
s 3
f 30/29/38 27/32/41 29/28/36 
s off
f 22/19/42 27/33/42 19/16/42 
s 1
f 4/4/4 17/13/17 2/2/2 
s 2
f 5/15/19 25/22/29 19/16/20 
s 1
f 2/2/2 31/34/43 6/35/6 
s off
f 7/36/44 32/37/44 5/5/44 
f 26/23/45 27/33/45 22/19/45 
s 2
f 5/15/19 32/38/46 28/26/33 
f 7/39/47 28/26/33 32/37/46 
s 1
f 22/19/24 20/17/23 26/23/31 
f 26/23/31 1/40/1 29/28/36 
f 1/1/1 3/3/3 27/41/41 
f 16/12/16 33/13/48 31/34/43 
f 33/13/48 14/2/14 31/34/43 
f 14/2/14 11/3/11 6/35/6 
f 15/11/15 33/13/48 16/12/16 
s 2
f 34/14/49 35/16/50 10/15/51 
s off
f 36/17/52 37/18/52 35/16/52 
s 1
f 35/16/53 38/19/54 36/17/55 
f 39/20/56 36/17/55 24/21/26 
s off
f 36/17/57 39/20/57 40/22/57 
s 2
f 37/18/58 36/17/59 40/22/60 
s 1
f 8/8/8 41/23/61 13/1/13 
s 4
f 42/24/62 10/25/10 11/3/11 
s 2
f 43/26/63 10/15/51 40/22/60 
s 1
f 16/12/16 31/34/43 17/13/17 
f 8/8/8 24/21/26 41/23/61 
s 4
f 42/27/62 35/16/64 34/14/65 
s 2
f 44/28/66 45/29/67 13/1/68 
s 1
f 36/17/55 41/23/61 24/21/26 
s 2
f 39/20/69 24/21/40 40/22/60 
s 4
f 10/7/10 42/31/62 34/30/65 
s 1
f 17/13/17 31/34/43 2/2/2 
f 15/11/15 12/4/12 33/13/48 
s 2
f 35/16/50 37/18/58 40/22/60 
f 43/26/63 40/22/60 24/21/40 
s 1
f 2/2/2 6/35/6 3/3/3 
f 42/32/70 44/28/66 41/23/61 
s 3
f 45/29/67 44/28/66 42/32/70 
s off
f 38/19/71 35/16/71 42/33/71 
s 1
f 12/4/12 14/2/14 33/13/48 
s 2
f 10/15/51 35/16/50 40/22/60 
s 1
f 14/2/14 6/35/6 31/34/43 
s off
f 7/36/72 10/5/72 46/37/72 
f 41/23/73 38/19/73 42/33/73 
s 2
f 10/15/51 43/26/63 46/38/74 
f 7/39/47 46/37/74 43/26/63 
s 1
f 38/19/54 41/23/61 36/17/55 
f 41/23/61 44/28/66 13/40/13 
f 13/1/13 42/41/70 11/3/11 
f 15/11/15 4/4/4 9/42/9 
f 15/11/15 9/42/9 12/4/12 
# 0 polygons - 84 triangles

#
# object polygon1
#

v  1.0427 1.7946 1.2194
v  0.7042 2.5256 1.2251
v  0.0000 2.0492 1.6676
v  0.5978 1.3734 1.4684
v  0.0000 2.5940 1.3613
v  0.0000 1.3678 1.7048
v  -1.0427 1.7946 1.2194
v  -0.7042 2.5256 1.2251
v  -0.5978 1.3734 1.4684
# 9 vertices

vn 0.4205 0.1457 0.8955
vn 0.3605 0.2905 0.8864
vn 0.0000 0.2379 0.9713
vn 0.3978 0.0825 0.9138
vn 0.0000 0.4900 0.8717
vn 0.0000 0.0546 0.9985
vn -0.4205 0.1457 0.8955
vn -0.3605 0.2905 0.8864
vn -0.3978 0.0825 0.9138
# 9 vertex normals

vt 0.8968 0.3208 0.0000
vt 0.6320 0.8928 0.0000
vt 0.0810 0.5200 0.0000
vt 0.5486 -0.0086 0.0000
vt 0.0810 0.9463 0.0000
vt 0.0810 -0.0131 0.0000
vt 0.8979 0.3208 0.0000
vt 0.0821 0.5200 0.0000
vt 0.6330 0.8928 0.0000
vt 0.5497 -0.0086 0.0000
vt 0.0821 0.9463 0.0000
vt 0.0821 -0.0131 0.0000
# 12 texture coords

g polygon1
usemtl au02_eye_00_00a
s 1
f 47/43/75 48/44/76 49/45/77 
f 47/43/75 49/45/77 50/46/78 
f 48/44/76 51/47/79 49/45/77 
f 50/46/78 49/45/77 52/48/80 
f 53/49/81 49/50/77 54/51/82 
f 53/49/81 55/52/83 49/50/77 
f 54/51/82 49/50/77 51/53/79 
f 55/52/83 52/54/80 49/50/77 
# 0 polygons - 8 triangles

#
# object polygon2
#

v  0.0000 0.8356 1.7646
v  0.0000 0.6023 1.6068
v  0.9890 0.8528 1.2875
v  -0.9890 0.8528 1.2875
# 4 vertices

vn 0.0000 -0.5604 0.8282
vn 0.3788 -0.5186 0.7665
vn -0.3788 -0.5186 0.7665
vn 1.0000 0.0000 -0.0000
# 4 vertex normals

g polygon2
usemtl au02_tooth_00_00a
s 1
f 56//84 57//84 58//85 
f 59//86 56//84 59//87 
f 59//86 57//84 56//84 
# 0 polygons - 3 triangles

